<svg width="20" height="12" viewBox="0 0 20 12" fill="none" xmlns="http://www.w3.org/2000/svg">
<path d="M10.8574 12C4.29747 12 0.555805 7.49549 0.399902 0H3.68585C3.79378 5.5015 6.21627 7.83183 8.13507 8.31231V0H11.2291V4.74474C13.124 4.54054 15.1147 2.37838 15.7863 0H18.8804C18.6273 1.23349 18.1228 2.40142 17.3985 3.43072C16.6742 4.46001 15.7457 5.32854 14.671 5.98198C15.8706 6.57905 16.9302 7.42414 17.7798 8.4615C18.6295 9.49885 19.2498 10.7049 19.5999 12H16.194C15.8797 10.8751 15.241 9.86812 14.3578 9.10528C13.4746 8.34244 12.3862 7.85766 11.2291 7.71171V12H10.8574Z" fill="#848386"/>
</svg>
